# xmcd
#
# Track frame offsets: 
#        150
#        9767
#        20496
#        34830
#        51456
#        63771
#        79329
#        90732
#        103557
#
# Disc length: 1568 seconds
#
# Revision: 0
# Processed by: cddbd v1.5.1PL2 Copyright (c) Steve Scherf et al.
# Submitted via: ExactAudioCopy v0.95b2
#
DISCID=66061e09
DTITLE=The Bo-Stevens - Can'ts Never Could
DYEAR=2004
DGENRE=Country
TTITLE0=My Baby Got Gone
TTITLE1=Only Daddy That'll Walk The Line
TTITLE2=12 Ounces
TTITLE3=Can't See You Again
TTITLE4=Hey Porter
TTITLE5=Old Letters
TTITLE6=I Just Can't Help Myself
TTITLE7=Head First
TTITLE8=River of Jordan
EXTD=
EXTT0=
EXTT1=
EXTT2=
EXTT3=
EXTT4=
EXTT5=
EXTT6=
EXTT7=
EXTT8=
PLAYORDER=
